<?xml version="1.0" standalone="no"?>
<svg version="1.0" xmlns="http://www.w3.org/2000/svg"
 width="1024.000000pt" height="1024.000000pt" viewBox="0 0 1024.000000 1024.000000"
 preserveAspectRatio="xMidYMid meet">

<g transform="translate(0.000000,1024.000000) scale(0.100000,-0.100000)"
fill="#000000" stroke="none">
<path d="M0 5120 l0 -5120 5120 0 5120 0 0 5120 0 5120 -5120 0 -5120 0 0
-5120z m5350 3967 c75 -21 162 -54 185 -71 18 -13 17 -17 -34 -95 -30 -44 -55
-81 -57 -81 -2 0 -37 11 -79 25 -155 52 -319 54 -462 4 -32 -11 -64 -21 -72
-22 -12 -2 -121 145 -121 163 0 12 116 56 195 74 39 8 79 18 90 20 42 10 301
-3 355 -17z m-689 -244 c28 -41 49 -76 47 -77 -42 -27 -119 -103 -154 -151
-71 -100 -107 -191 -129 -327 -5 -34 -9 -38 -35 -38 -17 0 -40 10 -55 25 -15
13 -42 29 -60 35 l-32 11 9 52 c13 71 52 186 88 256 53 105 235 311 261 295 5
-3 32 -39 60 -81z m1081 32 c158 -131 268 -340 294 -557 l6 -58 -101 0 -101 0
0 31 c0 41 -24 134 -51 195 -41 93 -145 225 -213 269 -22 15 -24 20 -14 39 17
32 98 136 106 136 4 0 38 -25 74 -55z m-1514 33 c7 -7 12 -24 12 -38 0 -34
-17 -50 -52 -50 -18 0 -33 8 -44 25 -15 23 -15 27 0 50 18 27 63 34 84 13z
m2437 -260 c27 -40 108 -88 150 -88 43 -1 47 -17 5 -24 -56 -9 -112 -38 -143
-76 -27 -31 -57 -115 -57 -157 0 -13 -4 -23 -10 -23 -5 0 -10 13 -10 30 0 45
-29 122 -58 153 -34 36 -85 63 -140 72 -51 8 -47 20 9 29 98 16 171 88 185
185 10 70 16 71 30 1 8 -35 25 -81 39 -102z m-411 116 c9 -8 16 -22 16 -30 0
-55 -66 -75 -96 -29 -15 23 -15 27 0 50 19 29 56 33 80 9z m-1003 -8 c218 -47
400 -222 440 -424 17 -88 7 -241 -21 -321 -43 -123 -134 -227 -247 -282 l-43
-21 -2 -1805 -3 -1805 133 -127 132 -128 -2 -1189 -3 -1189 -90 -12 c-49 -6
-147 -15 -217 -19 l-128 -7 -1 784 c0 431 0 1896 1 3254 1 2084 4 2471 15
2478 46 25 103 79 127 117 79 128 20 298 -120 350 -134 51 -278 -21 -318 -158
-35 -120 30 -260 139 -301 l27 -11 0 -542 -1 -543 -94 98 -95 99 0 331 -1 332
-49 23 c-157 74 -260 258 -260 467 0 158 47 276 156 394 132 142 324 199 525
157z m-1263 -138 c7 -7 12 -26 12 -43 0 -38 -16 -55 -50 -55 -34 0 -50 17 -50
55 0 38 16 55 50 55 14 0 31 -5 38 -12z m3725 -115 l106 -108 -24 -25 -25 -26
39 -38 40 -39 30 26 c45 37 127 53 195 38 147 -33 228 -168 190 -319 l-16 -64
28 -29 c33 -34 49 -36 64 -9 6 11 17 20 24 20 7 0 63 -48 125 -108 l113 -107
-65 -70 -66 -70 -109 109 c-97 95 -109 111 -99 127 10 16 6 24 -24 55 l-36 36
-38 -26 c-98 -67 -220 -60 -312 18 -68 58 -99 183 -69 277 l17 52 -35 36 c-35
34 -36 35 -50 16 -14 -19 -20 -14 -127 91 l-112 112 58 66 c32 36 62 66 66 66
4 0 54 -48 112 -107z m-4108 -6 c69 -38 113 -130 100 -207 -22 -131 -149 -198
-298 -158 -42 11 -47 10 -112 -26 -37 -21 -84 -55 -104 -75 -25 -26 -51 -41
-86 -50 -27 -6 -96 -35 -153 -62 -169 -84 -278 -207 -337 -382 -30 -90 -41
-209 -27 -285 l10 -54 -87 7 c-156 12 -302 -39 -405 -144 -57 -58 -58 -59 -43
-87 33 -66 33 -68 -37 -103 -162 -80 -281 -258 -301 -452 -5 -47 -2 -92 10
-151 l16 -83 -36 -60 c-49 -82 -69 -154 -69 -255 0 -219 130 -413 332 -496
l68 -28 0 -61 c-1 -130 119 -295 251 -345 34 -13 91 -25 136 -28 l79 -5 31 38
c80 98 238 99 310 3 64 -86 58 -209 -15 -274 -84 -77 -236 -70 -299 15 -23 31
-24 31 -114 31 -163 0 -266 41 -376 151 -77 76 -133 179 -151 277 l-12 63 -60
32 c-38 20 -96 66 -152 122 -75 74 -99 105 -133 175 -51 106 -71 180 -78 295
-6 106 12 207 53 293 26 54 27 64 25 192 -2 154 15 243 69 351 38 76 106 172
150 214 17 16 49 65 70 108 22 44 58 102 80 130 95 120 249 219 395 253 39 10
76 18 83 20 7 2 12 20 12 43 0 80 70 263 143 371 43 65 143 166 210 212 72 49
186 103 252 120 33 8 64 25 90 49 42 39 154 114 185 124 11 3 21 20 25 42 15
79 56 126 137 154 61 22 104 18 163 -14z m3915 -656 c-46 -55 -99 -106 -102
-100 -2 3 -111 114 -243 247 l-240 242 70 70 70 70 242 -242 242 -242 -39 -45z
m-3324 343 c57 -24 102 -62 132 -113 23 -40 27 -57 27 -126 0 -69 -4 -86 -28
-127 -15 -26 -41 -56 -57 -68 l-30 -21 0 -163 0 -162 92 -30 c198 -63 363
-215 434 -400 9 -25 47 -73 93 -120 129 -133 195 -300 194 -494 -1 -58 -5
-118 -10 -135 -8 -25 -5 -40 18 -86 42 -85 59 -164 59 -280 0 -130 -19 -209
-76 -327 -36 -74 -61 -109 -122 -171 -42 -43 -88 -85 -101 -94 -22 -15 -22
-17 -10 -54 20 -56 17 -224 -5 -298 -66 -220 -253 -399 -467 -445 -64 -14
-244 -9 -301 9 -54 17 -157 89 -187 131 l-26 37 -62 -5 c-218 -17 -314 247
-136 372 54 37 148 48 188 22 l26 -17 119 113 c66 62 122 118 124 125 9 23
-197 17 -262 -7 -140 -53 -284 -3 -340 119 -45 97 -31 199 36 273 34 38 98 78
124 78 6 0 98 85 202 189 203 201 260 241 359 256 32 5 48 13 52 25 13 41 68
101 112 124 70 35 122 41 188 21 217 -63 253 -364 55 -465 -101 -52 -216 -33
-298 49 l-47 48 -58 -7 -58 -6 -142 -142 -141 -141 31 -33 c44 -48 55 -73 56
-139 l2 -59 104 0 c87 0 112 4 150 22 25 12 68 23 95 25 103 7 195 -74 204
-181 13 -163 -123 -265 -283 -211 l-46 16 -112 -105 -112 -105 1 -62 c0 -55 4
-66 34 -102 19 -22 57 -50 87 -64 47 -22 65 -24 146 -21 79 3 102 8 160 35
125 60 223 186 257 332 16 69 7 244 -15 296 -8 21 -14 39 -13 41 2 1 38 25 80
53 121 81 191 182 229 329 37 144 19 272 -55 392 l-36 58 20 77 c32 126 22
220 -36 343 -58 122 -208 259 -303 278 -37 8 -38 16 -6 73 14 24 23 52 20 61
-18 57 -179 161 -271 175 -38 6 -42 4 -69 -32 -16 -21 -76 -86 -134 -146
l-104 -107 2 -64 c1 -38 -4 -77 -12 -98 -18 -44 -72 -105 -108 -124 l-29 -15
0 -188 0 -188 -147 -139 c-82 -76 -205 -194 -275 -263 l-128 -125 0 -567 c0
-565 0 -568 21 -574 73 -23 139 -133 139 -231 0 -167 -144 -279 -311 -240 -59
13 -65 13 -87 -4 -56 -44 -126 -60 -265 -60 -203 0 -302 -34 -375 -129 -28
-37 -32 -48 -25 -75 51 -200 -140 -356 -302 -245 -143 99 -94 316 82 360 34 9
50 22 83 65 112 148 286 223 491 210 71 -4 109 -2 145 9 73 22 74 23 62 76
-20 88 31 196 118 249 l34 22 0 394 0 394 -302 0 c-331 0 -361 4 -473 59 -113
56 -217 191 -244 319 -17 83 -15 544 4 615 26 100 72 176 154 258 80 78 181
139 284 169 40 12 47 18 47 39 0 41 40 111 81 140 111 81 241 52 302 -68 54
-108 20 -218 -85 -272 -44 -22 -147 -25 -193 -5 -26 11 -38 10 -80 -4 -144
-49 -243 -132 -298 -247 l-32 -68 0 -260 c0 -252 1 -261 23 -307 30 -60 80
-110 140 -140 46 -22 55 -23 360 -26 l312 -3 0 120 0 120 275 256 275 256 0
148 0 149 -30 12 c-42 17 -104 90 -118 138 -65 217 137 402 345 317 l31 -13
106 108 106 109 0 208 -1 208 -70 34 -70 34 -127 -6 c-91 -4 -144 -11 -185
-26 -181 -64 -308 -195 -337 -350 -6 -31 -10 -227 -10 -460 0 -458 -3 -486
-68 -580 -33 -48 -106 -118 -182 -174 -20 -15 -25 -27 -26 -65 -2 -87 -79
-189 -161 -211 -182 -51 -343 77 -331 263 5 86 44 149 117 193 89 53 192 54
264 2 27 -20 28 -20 55 0 51 36 101 96 122 145 21 47 22 62 24 490 1 399 3
446 20 496 45 136 116 239 217 314 135 102 246 140 432 151 l127 7 0 32 c1 73
89 177 174 204 48 15 119 14 162 -4z m2912 -277 l242 -242 -94 -94 -95 -94
-245 244 -246 244 91 93 c50 50 93 92 97 92 4 0 116 -109 250 -243z m-706 208
c18 -40 -3 -75 -45 -75 -52 0 -72 34 -47 81 17 30 77 26 92 -6z m-366 -7 c-3
-13 -10 -54 -16 -92 -29 -183 -149 -382 -287 -477 l-43 -30 0 -162 -1 -162
-76 -50 c-41 -27 -79 -51 -84 -53 -5 -2 -9 115 -9 265 l0 269 33 18 c138 80
245 245 277 429 l12 67 99 0 c98 0 99 0 95 -22z m-1430 -387 c26 -29 66 -63
90 -77 l44 -26 0 -165 0 -165 -42 34 c-24 18 -64 54 -90 79 -40 38 -48 51 -48
82 0 28 -6 40 -25 53 -13 8 -49 44 -79 78 l-54 62 34 69 c19 37 37 85 40 107
l7 39 39 -60 c21 -33 59 -82 84 -110z m-2382 113 c20 -19 21 -68 2 -83 -24
-20 -69 -9 -85 20 -13 24 -13 29 2 53 20 30 57 35 81 10z m5538 -51 c26 -26
48 -51 48 -55 0 -5 -112 -124 -250 -265 -225 -230 -270 -283 -241 -283 18 0
34 -73 28 -130 -6 -66 -9 -63 114 -105 64 -22 73 -30 377 -330 172 -169 312
-313 312 -319 0 -7 -21 -33 -47 -58 l-48 -47 -329 322 c-190 186 -356 339
-392 363 -56 37 -64 40 -85 28 -13 -7 -49 -13 -79 -13 -100 -1 -180 68 -180
154 0 50 -5 55 -90 89 -61 25 -83 44 -335 296 l-270 270 50 50 c27 27 52 50
55 50 5 0 185 -174 474 -459 141 -140 157 -153 169 -137 7 10 36 25 64 35 37
13 62 30 93 66 53 62 503 525 510 525 2 0 26 -21 52 -47z m295 -430 l133 -131
-77 -82 -78 -81 -170 170 -169 170 79 75 80 74 34 -31 c19 -18 94 -91 168
-164z m-4243 148 c24 -26 17 -62 -15 -80 -24 -13 -29 -13 -53 2 -16 11 -26 27
-26 42 0 50 60 73 94 36z m2597 -143 l139 -141 -78 -79 -78 -79 -139 141 c-77
77 -141 147 -143 154 -3 14 132 146 150 146 6 0 73 -64 149 -142z m1376 -200
c90 -90 163 -167 163 -173 0 -6 -31 -42 -70 -80 l-69 -69 -156 155 c-86 84
-161 162 -167 173 -8 16 0 29 58 87 38 38 71 69 74 69 2 0 78 -73 167 -162z
m-1546 -242 l-70 -69 -144 145 -145 145 71 72 72 73 142 -149 143 -148 -69
-69z m574 54 l170 -170 -110 -112 c-61 -61 -201 -202 -313 -313 l-202 -201
-175 175 -176 174 24 26 c13 14 49 53 80 86 l55 59 55 -47 c30 -26 70 -65 88
-87 18 -22 36 -40 39 -40 4 0 21 18 38 39 l32 39 -85 84 -85 84 70 69 70 69
62 -59 c35 -33 78 -74 96 -90 l32 -29 30 29 c17 16 30 34 30 40 0 6 -38 48
-85 95 l-85 85 82 82 c46 46 85 83 88 83 3 0 82 -76 175 -170z m1612 8 c84
-84 153 -157 153 -163 0 -5 -32 -42 -71 -81 l-71 -71 -161 158 -162 159 75 75
c41 41 77 75 80 75 2 0 73 -69 157 -152z m-2417 -283 l-80 -80 -145 145 -145
145 80 80 80 81 145 -146 145 -145 -80 -80z m2192 48 l158 -158 -67 -67 c-37
-38 -73 -68 -79 -68 -6 0 -83 69 -169 153 l-158 152 74 72 c41 40 76 73 79 73
3 0 76 -71 162 -157z m-928 -79 l99 -106 -234 -231 c-129 -128 -296 -292 -372
-367 l-137 -135 -102 102 -101 101 159 167 c157 166 573 575 584 575 3 0 50
-48 104 -106z m-2967 59 c78 -36 131 -134 118 -219 -26 -174 -270 -228 -371
-83 -65 94 -45 212 48 282 61 47 132 54 205 20z m3346 -368 c75 -79 137 -147
137 -151 0 -5 -30 -39 -67 -76 l-67 -68 -129 128 c-70 70 -137 139 -148 155
l-21 27 67 69 c37 39 72 68 79 65 7 -3 74 -69 149 -149z m1022 -119 c67 -181
135 -473 172 -741 26 -185 25 -726 0 -900 -72 -490 -186 -832 -409 -1235 -247
-446 -581 -831 -998 -1150 -188 -145 -471 -326 -482 -310 -2 3 -1 246 2 540
l5 535 106 60 c183 106 276 171 282 196 3 13 19 98 36 189 17 91 53 284 81
430 28 146 50 273 50 283 0 15 -12 17 -110 17 -104 0 -110 1 -125 24 -18 27
-7 69 20 80 9 3 61 6 116 6 l99 0 0 129 c0 141 7 161 55 161 37 0 45 -28 45
-164 l0 -126 98 0 c129 0 166 -26 132 -91 -10 -17 -22 -19 -126 -19 -115 0
-116 0 -111 -22 3 -13 15 -79 27 -148 36 -218 81 -445 89 -453 10 -10 184 173
255 268 121 161 155 235 181 403 l7 42 -111 0 c-108 0 -111 1 -127 26 -16 24
-16 27 3 52 19 26 24 27 127 30 l106 3 0 137 c0 148 4 162 50 162 46 0 50 -14
50 -162 l0 -138 53 0 52 0 24 53 c165 359 241 706 241 1095 0 260 -30 458
-106 701 -19 62 -32 116 -29 120 4 3 28 22 53 42 l47 36 16 -31 c9 -17 33 -76
54 -130z m-2976 130 c48 -25 63 -83 36 -136 -51 -98 -204 -39 -180 69 8 37 58
81 91 81 14 0 37 -6 53 -14z m1808 -443 l-67 -68 -100 100 c-55 55 -120 123
-144 150 l-44 51 61 68 60 68 151 -151 151 -151 -68 -67z m-1436 176 c33 -33
4 -89 -48 -89 -31 0 -58 42 -44 69 23 42 61 51 92 20z m1151 -171 l148 -153
-62 -62 c-35 -35 -66 -62 -70 -61 -4 2 -75 70 -157 152 l-150 149 67 63 c37
35 69 63 71 64 3 0 71 -69 153 -152z m1094 49 c22 -19 26 -29 20 -51 -3 -15
-17 -32 -31 -38 -58 -26 -105 60 -53 96 29 21 32 20 64 -7z m-519 -96 c17 -11
34 -29 38 -41 10 -32 -14 -81 -47 -95 -24 -9 -34 -25 -53 -78 -93 -267 -314
-497 -593 -617 -141 -61 -245 -83 -415 -88 -109 -3 -173 0 -249 13 -321 54
-595 235 -783 519 -43 64 -77 105 -87 106 -27 0 -58 40 -58 75 0 41 39 85 75
85 31 0 75 -41 75 -70 0 -30 110 -189 188 -272 204 -217 500 -347 794 -348 80
0 272 32 348 58 202 70 416 239 524 415 60 97 116 223 116 262 0 36 23 73 54
85 31 13 38 12 73 -9z m-787 -158 l151 -148 -72 -73 -71 -73 -122 117 c-66 65
-137 132 -156 151 l-35 33 70 70 c38 38 73 70 77 70 4 0 75 -66 158 -147z
m-876 61 c36 -36 9 -94 -44 -94 -46 0 -66 55 -33 92 20 22 56 23 77 2z m-1864
-34 c26 -26 25 -55 -1 -81 -14 -14 -27 -18 -42 -14 -49 15 -63 73 -25 99 30
21 44 20 68 -4z m3723 -130 c10 -9 -26 -153 -64 -250 -34 -90 -115 -232 -177
-315 -180 -238 -475 -425 -782 -496 -127 -30 -395 -37 -531 -14 -108 18 -254
59 -264 74 -4 8 30 101 37 101 2 0 39 -12 83 -25 44 -14 134 -32 200 -41 311
-42 612 30 892 212 74 48 268 242 316 315 76 117 142 266 181 410 l16 57 42
-10 c24 -6 47 -14 51 -18z m-1559 -96 c19 -18 21 -65 4 -82 -20 -20 -65 -14
-82 10 -21 30 -20 44 4 68 24 24 53 26 74 4z m1918 -31 c36 -33 10 -103 -39
-103 -20 0 -53 38 -53 60 0 24 34 60 57 60 9 0 25 -7 35 -17z m-191 -363 c13
-7 19 -21 19 -43 0 -40 -15 -57 -52 -57 -44 0 -64 56 -31 92 18 20 36 23 64 8z
m-6462 -56 c71 -21 141 -90 166 -163 34 -103 -7 -224 -98 -291 l-49 -35 5
-275 c5 -290 9 -317 64 -485 81 -250 262 -483 446 -572 76 -38 159 -63 205
-63 l34 0 -2 213 c-3 209 -2 214 26 312 l30 100 270 5 271 5 59 31 c32 17 118
63 189 103 72 39 149 77 172 83 37 11 46 19 68 64 32 65 87 105 155 112 73 7
117 -5 160 -44 106 -96 86 -268 -40 -331 -56 -29 -117 -29 -197 -2 l-62 22
-63 -23 c-77 -27 -146 -68 -215 -127 l-53 -44 -2 -868 -3 -868 -94 56 -94 56
6 788 7 787 -203 -2 -202 -3 -1 -185 c0 -102 2 -301 4 -442 5 -243 6 -258 24
-264 34 -10 89 -66 114 -115 30 -60 33 -154 5 -214 -21 -46 -88 -111 -137
-131 -43 -18 -135 -18 -178 0 -51 21 -117 86 -139 136 -45 101 -11 238 76 300
l42 30 -3 129 -3 128 -72 12 c-316 51 -590 302 -740 677 -84 207 -107 327
-107 548 0 83 -3 201 -6 262 l-7 111 -33 18 c-150 81 -155 335 -8 426 81 50
131 58 213 33z m4140 -30 c87 -73 38 -201 -76 -198 -103 2 -142 124 -63 197
41 36 96 37 139 1z m2009 -276 c21 -18 14 -66 -13 -84 -30 -20 -63 -10 -76 23
-13 34 -12 40 12 64 20 20 48 19 77 -3z m-2235 -298 c5 -22 16 -35 42 -47 19
-9 35 -20 35 -25 0 -4 -15 -14 -34 -22 -25 -10 -36 -22 -41 -45 -8 -39 -15
-39 -38 0 -9 17 -31 36 -47 42 -33 13 -34 27 -3 42 37 19 53 37 53 60 0 46 24
42 33 -5z m-3526 -50 c41 -24 56 -54 56 -108 0 -72 -64 -118 -141 -101 -97 21
-126 135 -52 202 37 33 90 36 137 7z m2914 -57 l69 -66 0 -1435 0 -1435 -127
7 c-133 8 -262 21 -269 28 -6 6 -5 2640 0 2646 3 2 56 -43 118 -101 l113 -106
3 264 c1 182 6 265 13 265 6 0 42 -30 80 -67z m1333 -29 c13 -13 16 -42 16
-160 0 -129 2 -145 18 -150 135 -40 230 -156 240 -296 l5 -68 -318 0 -318 0 6
59 c11 128 92 241 203 286 l59 24 3 143 c2 114 6 146 19 160 20 22 47 23 67 2z
m-1850 -140 c9 -8 16 -26 16 -39 0 -53 -67 -75 -95 -31 -35 53 34 115 79 70z
m2424 -124 c13 -26 28 -39 60 -50 42 -15 56 -30 26 -30 -36 0 -83 -41 -100
-87 l-18 -47 -16 36 c-23 52 -40 69 -90 91 l-45 20 40 14 c53 18 83 49 96 97
11 40 12 40 21 16 5 -14 17 -41 26 -60z m-2841 -1397 c-4 -560 -7 -1035 -7
-1055 l0 -37 -112 38 c-173 59 -290 106 -441 178 l-137 66 2 681 3 681 345
233 c189 127 346 232 349 232 2 0 1 -458 -2 -1017z m2623 522 l0 -335 -394 0
c-217 0 -397 4 -400 9 -3 4 -3 154 1 332 l6 324 394 3 393 3 0 -336z m517 265
c10 -20 10 -29 -1 -45 -16 -23 -61 -32 -82 -14 -17 14 -18 61 -2 77 21 21 71
10 85 -18z m-2779 8 c13 -13 16 -57 4 -74 -15 -24 -50 -26 -71 -5 -23 23 -26
43 -11 72 12 22 59 26 78 7z m70 -534 c26 -18 29 -56 6 -78 -40 -40 -105 4
-85 57 15 38 44 46 79 21z m2324 -594 c1 -215 2 -416 3 -447 l0 -56 -95 -48
c-122 -61 -269 -119 -418 -165 -139 -42 -440 -119 -505 -129 l-47 -7 0 621 0
620 530 1 530 0 2 -390z m-2413 190 l131 -115 0 -466 0 -467 -77 15 c-43 8
-122 24 -177 37 l-98 22 -3 84 c-2 47 -1 309 2 582 l6 497 42 -37 c24 -20 102
-89 174 -152z"/>
<path d="M5350 3605 l0 -75 70 0 70 0 0 75 0 75 -70 0 -70 0 0 -75z"/>
<path d="M5357 3323 c-4 -3 -7 -39 -7 -80 l0 -73 70 0 70 0 0 80 0 80 -63 0
c-35 0 -67 -3 -70 -7z"/>
<path d="M5350 2880 l0 -80 65 0 65 0 0 80 0 80 -65 0 -65 0 0 -80z"/>
<path d="M5378 2593 c-27 -4 -28 -6 -28 -74 l0 -69 65 0 65 0 2 38 c5 112 7
107 -37 108 -22 1 -52 -1 -67 -3z"/>
<path d="M5352 2173 l3 -78 65 0 65 0 3 78 3 77 -71 0 -71 0 3 -77z"/>
<path d="M5352 1828 l3 -73 63 -3 62 -3 0 76 0 75 -65 0 -66 0 3 -72z"/>
<path d="M4067 8009 c-41 -24 -40 -94 1 -125 45 -35 112 4 112 63 0 54 -65 90
-113 62z"/>
<path d="M3680 6913 c-56 -21 -70 -96 -24 -132 34 -27 57 -26 89 2 47 40 30
115 -30 130 -11 3 -27 3 -35 0z"/>
<path d="M2675 6180 c-22 -25 -22 -76 1 -101 23 -25 78 -25 104 1 24 24 26 67
4 98 -20 29 -83 31 -109 2z"/>
<path d="M4460 6157 c-80 -40 -24 -174 57 -135 40 19 58 61 42 100 -7 16 -23
34 -36 39 -31 11 -33 11 -63 -4z"/>
<path d="M3650 5528 c-27 -30 -26 -73 5 -103 30 -30 64 -32 99 -4 34 27 36 79
4 109 -29 27 -81 26 -108 -2z"/>
<path d="M3112 4394 c-16 -11 -22 -25 -22 -54 0 -72 72 -106 118 -57 62 66
-22 163 -96 111z"/>
<path d="M8260 4220 c0 -11 3 -20 8 -20 4 0 13 9 20 20 11 18 10 20 -8 20 -13
0 -20 -7 -20 -20z"/>
<path d="M7523 3573 c-23 -137 -40 -249 -38 -251 2 -2 89 65 138 108 6 5 -41
324 -56 383 -1 4 -21 -104 -44 -240z"/>
<path d="M7560 3135 l0 -65 60 0 60 0 0 65 0 65 -60 0 -60 0 0 -65z"/>
<path d="M7190 2845 l0 -65 65 0 65 0 0 65 0 65 -65 0 -65 0 0 -65z"/>
<path d="M7560 2845 l0 -65 60 0 c52 0 60 3 60 19 0 10 3 39 6 65 l7 46 -67 0
-66 0 0 -65z"/>
<path d="M7203 2613 c-9 -3 -13 -27 -13 -69 l0 -64 65 0 65 0 0 39 c0 21 -3
53 -6 70 -6 29 -9 31 -53 30 -25 0 -52 -3 -58 -6z"/>
<path d="M7560 2564 l0 -55 58 47 c31 25 59 50 60 55 2 5 -24 9 -57 9 l-61 0
0 -56z"/>
<path d="M7197 2323 c-10 -10 -8 -93 2 -93 14 0 111 79 111 90 0 11 -103 14
-113 3z"/>
<path d="M1592 4900 c-21 -9 -42 -46 -42 -75 0 -8 11 -26 23 -41 48 -55 127
-25 127 47 0 29 -6 42 -26 58 -29 23 -46 25 -82 11z"/>
<path d="M2521 2544 c-12 -15 -21 -33 -21 -40 0 -28 24 -63 51 -75 24 -9 33
-9 54 5 69 45 49 136 -30 136 -24 0 -39 -7 -54 -26z"/>
<path d="M4810 3770 l0 -50 50 0 50 0 0 50 0 50 -50 0 -50 0 0 -50z"/>
<path d="M4810 3550 l0 -50 50 0 50 0 0 50 0 50 -50 0 -50 0 0 -50z"/>
<path d="M4810 3320 l0 -50 50 0 50 0 0 50 0 50 -50 0 -50 0 0 -50z"/>
<path d="M4810 3090 l0 -50 50 0 50 0 0 50 0 50 -50 0 -50 0 0 -50z"/>
<path d="M4828 2913 c-14 -3 -18 -15 -18 -49 l0 -44 50 0 50 0 0 45 c0 38 -3
45 -19 45 -11 0 -25 2 -33 4 -7 2 -21 2 -30 -1z"/>
<path d="M4810 2640 l0 -50 50 0 50 0 0 50 0 50 -50 0 -50 0 0 -50z"/>
<path d="M4810 2420 l0 -50 50 0 50 0 0 50 0 50 -50 0 -50 0 0 -50z"/>
<path d="M4810 2195 l0 -55 50 0 50 0 0 55 0 55 -50 0 -50 0 0 -55z"/>
<path d="M4810 1970 l0 -50 50 0 50 0 0 50 0 50 -50 0 -50 0 0 -50z"/>
<path d="M4810 1740 l0 -50 50 0 50 0 0 50 0 50 -50 0 -50 0 0 -50z"/>
<path d="M3619 3037 c-35 -24 -79 -81 -79 -103 0 -11 19 -14 75 -14 l75 0 0
70 c0 80 -11 88 -71 47z"/>
<path d="M3740 2990 l0 -70 75 0 c85 0 89 6 52 61 -26 39 -81 79 -108 79 -17
0 -19 -9 -19 -70z"/>
<path d="M3540 2846 c0 -39 90 -126 131 -126 17 0 19 9 19 70 l0 70 -75 0
c-56 0 -75 -3 -75 -14z"/>
<path d="M3740 2790 c0 -78 6 -83 61 -55 31 17 89 89 89 112 0 10 -19 13 -75
13 l-75 0 0 -70z"/>
<path d="M3624 2401 c-34 -21 -67 -63 -78 -98 -7 -22 -6 -23 68 -23 l76 0 0
70 c0 79 -9 86 -66 51z"/>
<path d="M3740 2350 l0 -70 76 0 76 0 -6 26 c-14 53 -80 114 -124 114 -21 0
-22 -5 -22 -70z"/>
<path d="M3540 2213 c0 -28 45 -92 79 -111 65 -37 71 -32 71 48 l0 70 -75 0
c-41 0 -75 -3 -75 -7z"/>
<path d="M3740 2150 c0 -64 2 -70 20 -70 30 0 69 28 101 74 44 60 40 66 -46
66 l-75 0 0 -70z"/>
<path d="M6058 3383 c-15 -4 -18 -16 -18 -64 l0 -60 58 3 57 3 3 63 3 62 -43
-1 c-24 -1 -51 -3 -60 -6z"/>
<path d="M6420 3325 l0 -55 55 0 55 0 0 33 c0 17 3 42 6 55 6 21 4 22 -55 22
l-61 0 0 -55z"/>
<path d="M6420 3075 l0 -55 55 0 55 0 0 55 0 55 -55 0 -55 0 0 -55z"/>
<path d="M6040 3065 l0 -55 60 0 60 0 0 55 0 55 -60 0 -60 0 0 -55z"/>
<path d="M5924 2536 c-3 -7 -4 -40 -2 -72 l3 -59 68 -3 67 -3 0 76 0 75 -65 0
c-46 0 -67 -4 -71 -14z"/>
<path d="M6233 2543 c-9 -3 -13 -26 -13 -69 l0 -64 70 0 70 0 0 65 0 65 -32 2
c-18 0 -44 2 -58 3 -14 1 -31 0 -37 -2z"/>
<path d="M6530 2473 l0 -68 60 0 60 -1 0 68 0 68 -60 0 -60 0 0 -67z"/>
<path d="M5920 2171 c0 -39 3 -71 8 -73 4 -2 35 -2 70 0 l62 4 0 69 0 69 -70
0 -70 0 0 -69z"/>
<path d="M6220 2170 l0 -70 70 0 70 0 0 70 0 70 -70 0 -70 0 0 -70z"/>
<path d="M6530 2170 l0 -70 60 0 60 0 0 70 0 70 -60 0 -60 0 0 -70z"/>
<path d="M5920 1860 l0 -70 70 0 70 0 0 70 0 70 -70 0 -70 0 0 -70z"/>
<path d="M6220 1865 l0 -65 70 0 70 0 0 65 0 65 -70 0 -70 0 0 -65z"/>
<path d="M6530 1870 l0 -60 60 0 60 0 0 60 0 60 -60 0 -60 0 0 -60z"/>
<path d="M4302 2283 l3 -68 55 0 55 0 0 65 0 65 -58 3 -58 3 3 -68z"/>
<path d="M4300 1955 l0 -65 60 0 60 0 0 65 0 65 -60 0 -60 0 0 -65z"/>
</g>
</svg>
